# xmcd
# Copyright (C) 1995-1998 Ti Kan
#
# Track frame offsets:
#       150
#       16587
#       32025
#       54095
#       72022
#
# Disc length: 1176 seconds
#
# Revision: 2
# Processed by: cddbd v1.4PL0 Copyright (c) Steve Scherf et al.
# Submitted via: CD-Transfer v1.0
#
DISCID=2d049605
DTITLE=Lö Schanal - Inspiration
DYEAR=2002
DGENRE=
TTITLE0=En Teil Vo Mir
TTITLE1=Di Einzigi
TTITLE2=Küss Di Nüme
TTITLE3=Inspiration
TTITLE4=Glücklichi Stunde
EXTD=
EXTT0=
EXTT1=
EXTT2=
EXTT3=
EXTT4=
PLAYORDER=
